<mxfile host="app.diagrams.net" modified="2024-07-17T08:54:46.477Z" agent="Mozilla/5.0 (Windows NT 10.0; Win64; x64) AppleWebKit/537.36 (KHTML, like Gecko) Chrome/126.0.0.0 Safari/537.36" etag="zFZtS8itYLDQf6xeB3GN" version="24.6.5" type="device">
  <diagram name="Страница — 1" id="jI5G2MUnGm7V8DGCrErb">
    <mxGraphModel dx="1660" dy="518" grid="1" gridSize="10" guides="1" tooltips="1" connect="1" arrows="1" fold="1" page="1" pageScale="1" pageWidth="827" pageHeight="1169" math="0" shadow="0">
      <root>
        <mxCell id="0" />
        <mxCell id="1" parent="0" />
        <mxCell id="CMKljheIKp0z-z1IOWwI-1" value="" style="rounded=1;whiteSpace=wrap;html=1;" vertex="1" parent="1">
          <mxGeometry x="-410" y="50" width="270" height="100" as="geometry" />
        </mxCell>
        <mxCell id="CMKljheIKp0z-z1IOWwI-2" value="Данные с росреестр-выписка.рус:&lt;div&gt;Приведение к типу DECIMAL(20,1) кадастровой стоимости и площади объекта, координаты(долгота и широта) приводятся к типу DOUBLE, остальные данные имеют либо целочисленное значние (INT(11)), либо строчное (VARCHAR)&lt;/div&gt;" style="text;html=1;align=center;verticalAlign=middle;whiteSpace=wrap;rounded=0;" vertex="1" parent="1">
          <mxGeometry x="-401" y="50" width="255" height="100" as="geometry" />
        </mxCell>
        <mxCell id="CMKljheIKp0z-z1IOWwI-3" value="" style="rounded=1;whiteSpace=wrap;html=1;" vertex="1" parent="1">
          <mxGeometry x="-410" y="190" width="270" height="100" as="geometry" />
        </mxCell>
        <mxCell id="CMKljheIKp0z-z1IOWwI-4" value="Данные с dom.gosuslugi.ru:&lt;div&gt;Данные о проекте (если он типовой) преобразуются путем приведения текста к верхнему регистру.&amp;nbsp;&lt;span style=&quot;background-color: initial;&quot;&gt;&amp;nbsp;О&lt;/span&gt;&lt;span style=&quot;background-color: initial;&quot;&gt;стальные данные имеют либо целочисленное значние (INT(11)), либо строчное (VARCHAR)&lt;/span&gt;&lt;/div&gt;" style="text;html=1;align=center;verticalAlign=middle;whiteSpace=wrap;rounded=0;" vertex="1" parent="1">
          <mxGeometry x="-401" y="190" width="255" height="100" as="geometry" />
        </mxCell>
        <mxCell id="CMKljheIKp0z-z1IOWwI-5" value="" style="rounded=1;whiteSpace=wrap;html=1;" vertex="1" parent="1">
          <mxGeometry x="-413" y="330" width="270" height="100" as="geometry" />
        </mxCell>
        <mxCell id="CMKljheIKp0z-z1IOWwI-6" value="Формирование в QGIS полигона, форма которого описывается на сервисе otradnoe.su, экспорт его в формат .geojson и добавление в проект" style="text;html=1;align=center;verticalAlign=middle;whiteSpace=wrap;rounded=0;" vertex="1" parent="1">
          <mxGeometry x="-405.5" y="330" width="255" height="100" as="geometry" />
        </mxCell>
        <mxCell id="CMKljheIKp0z-z1IOWwI-7" value="" style="shape=flexArrow;endArrow=classic;html=1;rounded=0;exitX=0.5;exitY=1;exitDx=0;exitDy=0;entryX=0.5;entryY=0;entryDx=0;entryDy=0;" edge="1" parent="1" source="CMKljheIKp0z-z1IOWwI-2" target="CMKljheIKp0z-z1IOWwI-4">
          <mxGeometry width="50" height="50" relative="1" as="geometry">
            <mxPoint x="-130" y="190" as="sourcePoint" />
            <mxPoint x="-80" y="140" as="targetPoint" />
          </mxGeometry>
        </mxCell>
        <mxCell id="CMKljheIKp0z-z1IOWwI-9" value="" style="shape=flexArrow;endArrow=classic;html=1;rounded=0;exitX=0.5;exitY=1;exitDx=0;exitDy=0;entryX=0.5;entryY=0;entryDx=0;entryDy=0;" edge="1" parent="1">
          <mxGeometry width="50" height="50" relative="1" as="geometry">
            <mxPoint x="-273.84" y="290" as="sourcePoint" />
            <mxPoint x="-273.84" y="330" as="targetPoint" />
          </mxGeometry>
        </mxCell>
      </root>
    </mxGraphModel>
  </diagram>
</mxfile>
